# xmcd CD database file
#
# Track frame offsets:
#	150
#	8809
#	20844
#	50621
#	63379
#	80733
#	108715
#	146728
#	178460
#	192179
#
# Disc length: 3065 seconds
#
# Revision: 2
# Processed by: cddbd v1.4b41PL1 Copyright (c) Steve Scherf et al.
# Submitted via: Feurio! 1.50.2ß - http://www.feurio.com
#
DISCID=960bf70a
DTITLE=Akki Schulz - Tiefenrausch
DYEAR=1900
DGENRE=
TTITLE0=Reiselied
TTITLE1=Lokkruf der verrükkten Paradiesvögel
TTITLE2=Die wundersamen Gesänge der Bukkelbässe
TTITLE3=Gedicht an...
TTITLE4=Geisterparty
TTITLE5=Zur Stärkung
TTITLE6=Quasimodos Liebesschwüre
TTITLE7=Friggas Rokken
TTITLE8=Wasserbunker
TTITLE9=Tiefenrausch
EXTD=
EXTT0=
EXTT1=
EXTT2=
EXTT3=
EXTT4=
EXTT5=
EXTT6=
EXTT7=
EXTT8=
EXTT9=
PLAYORDER=
